<svg width="10000" height="236" viewBox="0 0 10000 236" fill="none" xmlns="http://www.w3.org/2000/svg">
<path fill-rule="evenodd" clip-rule="evenodd" d="M0 169.778L33.3333 181.905C66.6667 194.032 133.333 218.286 200 222.328C275 226.37 341.667 210.201 408.333 189.989C475 169.778 541.667 145.524 608.333 149.566C683.333 153.608 750 185.947 816.667 198.074C883.333 210.201 950 202.116 1016.67 165.735C1091.67 129.354 1158.33 64.6772 1225 44.4656C1291.67 24.254 1358.33 48.5079 1425 84.8889C1500 121.27 1566.67 169.778 1633.33 189.989C1700 210.201 1766.67 202.116 1833.33 181.905C1908.33 161.693 1975 129.354 2041.67 101.058C2108.33 72.7619 2175 48.5079 2241.67 52.5502C2316.67 56.5926 2383.33 88.9312 2450 101.058C2516.67 113.185 2583.33 105.1 2650 92.9735C2725 80.8465 2791.67 64.6772 2858.33 72.7619C2925 80.8465 2991.67 113.185 3058.33 125.312C3133.33 137.439 3200 129.354 3266.67 109.143C3333.33 88.9312 3400 56.5926 3466.67 76.8042C3533.33 97.0158 3608.33 169.778 3675 202.116C3741.67 234.455 3808.33 226.37 3875 218.286C3941.67 210.201 4016.67 202.116 4083.33 181.905C4150 161.693 4216.67 129.354 4283.33 117.227C4350 105.1 4425 113.185 4491.67 129.354C4558.33 145.524 4625 169.778 4691.67 153.608C4758.33 137.439 4833.33 80.8465 4900 84.8889C4966.67 88.9312 5033.33 153.608 5100 173.82C5166.67 194.032 5241.67 169.778 5308.33 149.566C5375 129.354 5441.67 113.185 5508.33 129.354C5575 145.524 5650 194.032 5716.67 218.286C5783.33 242.54 5850 242.54 5916.67 214.243C5983.33 185.947 6058.33 129.354 6125 101.058C6191.67 72.7619 6258.33 72.7619 6325 84.8889C6391.67 97.0158 6466.67 121.27 6533.33 133.397C6600 145.524 6666.67 145.524 6733.33 121.27C6800 97.0158 6866.67 48.5079 6941.67 56.5926C7008.33 64.6772 7075 129.354 7141.67 169.778C7208.33 210.201 7275 226.37 7350 210.201C7416.67 194.032 7483.33 145.524 7550 129.354C7616.67 113.185 7683.33 129.354 7758.33 121.27C7825 113.185 7891.67 80.8465 7958.33 76.8042C8025 72.7619 8091.67 97.0158 8166.67 97.0158C8233.33 97.0158 8300 72.7619 8366.67 80.8465C8433.33 88.9312 8500 129.354 8575 141.481C8641.67 153.608 8708.33 137.439 8775 129.354C8841.67 121.27 8908.33 121.27 8983.33 121.27C9050 121.27 9116.67 121.27 9183.33 137.439C9250 153.608 9316.67 185.947 9391.67 181.905C9458.33 177.862 9525 137.439 9591.67 105.1C9658.33 72.7619 9725 48.5079 9800 44.4656C9866.67 40.4233 9933.33 56.5926 9966.67 64.6772L10000 72.7619V-2.5343e-06H9966.67C9933.33 -2.5343e-06 9866.67 -2.5343e-06 9800 -2.5343e-06C9725 -2.5343e-06 9658.33 -2.5343e-06 9591.67 -2.5343e-06C9525 -2.5343e-06 9458.33 -2.5343e-06 9391.67 -2.5343e-06C9316.67 -2.5343e-06 9250 -2.5343e-06 9183.33 -2.5343e-06C9116.67 -2.5343e-06 9050 -2.5343e-06 8983.33 -2.5343e-06C8908.33 -2.5343e-06 8841.67 -2.5343e-06 8775 -2.5343e-06C8708.33 -2.5343e-06 8641.67 -2.5343e-06 8575 -2.5343e-06C8500 -2.5343e-06 8433.33 -2.5343e-06 8366.67 -2.5343e-06C8300 -2.5343e-06 8233.33 -2.5343e-06 8166.67 -2.5343e-06C8091.67 -2.5343e-06 8025 -2.5343e-06 7958.33 -2.5343e-06C7891.67 -2.5343e-06 7825 -2.5343e-06 7758.33 -2.5343e-06C7683.33 -2.5343e-06 7616.67 -2.5343e-06 7550 -2.5343e-06C7483.33 -2.5343e-06 7416.67 -2.5343e-06 7350 -2.5343e-06C7275 -2.5343e-06 7208.33 -2.5343e-06 7141.67 -2.5343e-06C7075 -2.5343e-06 7008.33 -2.5343e-06 6941.67 -2.5343e-06C6866.67 -2.5343e-06 6800 -2.5343e-06 6733.33 -2.5343e-06C6666.67 -2.5343e-06 6600 -2.5343e-06 6533.33 -2.5343e-06C6466.67 -2.5343e-06 6391.67 -2.5343e-06 6325 -2.5343e-06C6258.33 -2.5343e-06 6191.67 -2.5343e-06 6125 -2.5343e-06C6058.33 -2.5343e-06 5983.33 -2.5343e-06 5916.67 -2.5343e-06C5850 -2.5343e-06 5783.33 -2.5343e-06 5716.67 -2.5343e-06C5650 -2.5343e-06 5575 -2.5343e-06 5508.33 -2.5343e-06C5441.67 -2.5343e-06 5375 -2.5343e-06 5308.33 -2.5343e-06C5241.67 -2.5343e-06 5166.67 -2.5343e-06 5100 -2.5343e-06C5033.33 -2.5343e-06 4966.67 -2.5343e-06 4900 -2.5343e-06C4833.33 -2.5343e-06 4758.33 -2.5343e-06 4691.67 -2.5343e-06C4625 -2.5343e-06 4558.33 -2.5343e-06 4491.67 -2.5343e-06C4425 -2.5343e-06 4350 -2.5343e-06 4283.33 -2.5343e-06C4216.67 -2.5343e-06 4150 -2.5343e-06 4083.33 -2.5343e-06C4016.67 -2.5343e-06 3941.67 -2.5343e-06 3875 -2.5343e-06C3808.33 -2.5343e-06 3741.67 -2.5343e-06 3675 -2.5343e-06C3608.33 -2.5343e-06 3533.33 -2.5343e-06 3466.67 -2.5343e-06C3400 -2.5343e-06 3333.33 -2.5343e-06 3266.67 -2.5343e-06C3200 -2.5343e-06 3133.33 -2.5343e-06 3058.33 -2.5343e-06C2991.67 -2.5343e-06 2925 -2.5343e-06 2858.33 -2.5343e-06C2791.67 -2.5343e-06 2725 -2.5343e-06 2650 -2.5343e-06C2583.33 -2.5343e-06 2516.67 -2.5343e-06 2450 -2.5343e-06C2383.33 -2.5343e-06 2316.67 -2.5343e-06 2241.67 -2.5343e-06C2175 -2.5343e-06 2108.33 -2.5343e-06 2041.67 -2.5343e-06C1975 -2.5343e-06 1908.33 -2.5343e-06 1833.33 -2.5343e-06C1766.67 -2.5343e-06 1700 -2.5343e-06 1633.33 -2.5343e-06C1566.67 -2.5343e-06 1500 -2.5343e-06 1425 -2.5343e-06C1358.33 -2.5343e-06 1291.67 -2.5343e-06 1225 -2.5343e-06C1158.33 -2.5343e-06 1091.67 -2.5343e-06 1016.67 -2.5343e-06C950 -2.5343e-06 883.333 -2.5343e-06 816.667 -2.5343e-06C750 -2.5343e-06 683.333 -2.5343e-06 608.333 -2.5343e-06C541.667 -2.5343e-06 475 -2.5343e-06 408.333 -2.5343e-06C341.667 -2.5343e-06 275 -2.5343e-06 200 -2.5343e-06C133.333 -2.5343e-06 66.6667 -2.5343e-06 33.3333 -2.5343e-06H0V169.778Z" fill="white"/>
</svg>
