<svg width="10000" height="67" viewBox="0 0 10000 67" fill="none" xmlns="http://www.w3.org/2000/svg">
<path fill-rule="evenodd" clip-rule="evenodd" d="M0 59.5556L83.3333 54.5926C158.333 49.6296 316.667 39.7037 475 35.9815C633.333 32.2593 791.667 34.7407 950 35.9815C1108.33 37.2222 1266.67 37.2222 1425 32.2593C1583.33 27.2963 1750 17.3704 1908.33 18.6111C2066.67 19.8519 2225 32.2593 2383.33 34.7407C2541.67 37.2222 2700 29.7778 2858.33 29.7778C3016.67 29.7778 3175 37.2222 3333.33 35.9815C3491.67 34.7407 3650 24.8148 3808.33 21.0926C3966.67 17.3704 4125 19.8519 4283.33 22.3333C4441.67 24.8148 4600 27.2963 4758.33 33.5C4916.67 39.7037 5083.33 49.6296 5241.67 43.4259C5400 37.2222 5558.33 14.8889 5716.67 13.6481C5875 12.4074 6033.33 32.2593 6191.67 40.9444C6350 49.6296 6508.33 47.1481 6666.67 47.1481C6825 47.1481 6983.33 49.6296 7141.67 43.4259C7300 37.2222 7458.33 22.3333 7616.67 24.8148C7775 27.2963 7933.33 47.1481 8091.67 47.1481C8250 47.1481 8416.67 27.2963 8575 24.8148C8733.33 22.3333 8891.67 37.2222 9050 45.9074C9208.33 54.5926 9366.67 57.0741 9525 48.3889C9683.33 39.7037 9841.67 19.8519 9916.67 9.92593L10000 0V67H9916.67C9841.67 67 9683.33 67 9525 67C9366.67 67 9208.33 67 9050 67C8891.67 67 8733.33 67 8575 67C8416.67 67 8250 67 8091.67 67C7933.33 67 7775 67 7616.67 67C7458.33 67 7300 67 7141.67 67C6983.33 67 6825 67 6666.67 67C6508.33 67 6350 67 6191.67 67C6033.33 67 5875 67 5716.67 67C5558.33 67 5400 67 5241.67 67C5083.33 67 4916.67 67 4758.33 67C4600 67 4441.67 67 4283.33 67C4125 67 3966.67 67 3808.33 67C3650 67 3491.67 67 3333.33 67C3175 67 3016.67 67 2858.33 67C2700 67 2541.67 67 2383.33 67C2225 67 2066.67 67 1908.33 67C1750 67 1583.33 67 1425 67C1266.67 67 1108.33 67 950 67C791.667 67 633.333 67 475 67C316.667 67 158.333 67 83.3333 67H0V59.5556Z" fill="white"/>
</svg>
