<svg width="10000" height="121" viewBox="0 0 10000 121" fill="none" xmlns="http://www.w3.org/2000/svg">
<path fill-rule="evenodd" clip-rule="evenodd" d="M0 35.119L37 37.5046C74 39.8902 148 44.6614 222 56.5893C296 68.5172 370 87.6018 444 92.373C519 97.1442 593 87.6018 667 73.2883C741 58.9749 815 39.8902 889 27.9623C963 16.0344 1037 11.2632 1111 20.8055C1185 30.3479 1259 54.2037 1333 61.3604C1407 68.5172 1481 58.9749 1556 49.4325C1630 39.8902 1704 30.3479 1778 37.5046C1852 44.6614 1926 68.5172 2000 80.4451C2074 92.373 2148 92.373 2222 78.0595C2296 63.746 2370 35.119 2444 30.3479C2519 25.5767 2593 44.6614 2667 42.2758C2741 39.8902 2815 16.0344 2889 23.1911C2963 30.3479 3037 68.5172 3111 82.8307C3185 97.1442 3259 87.6018 3333 73.2883C3407 58.9749 3481 39.8902 3556 44.6614C3630 49.4325 3704 78.0595 3778 80.4451C3852 82.8307 3926 58.9749 4000 42.2758C4074 25.5767 4148 16.0344 4222 11.2632C4296 6.49203 4370 6.49203 4444 23.1911C4519 39.8902 4593 73.2883 4667 78.0595C4741 82.8307 4815 58.9749 4889 49.4325C4963 39.8902 5037 44.6614 5111 44.6614C5185 44.6614 5259 39.8902 5333 30.3479C5407 20.8055 5481 6.49203 5556 18.4199C5630 30.3479 5704 68.5172 5778 68.5172C5852 68.5172 5926 30.3479 6000 27.9623C6074 25.5767 6148 58.9749 6222 75.6739C6296 92.373 6370 92.373 6444 85.2163C6519 78.0595 6593 63.746 6667 66.1316C6741 68.5172 6815 87.6018 6889 80.4451C6963 73.2883 7037 39.8902 7111 20.8055C7185 1.72086 7259 -3.0503 7333 1.72086C7407 6.49203 7481 20.8055 7556 30.3479C7630 39.8902 7704 44.6614 7778 58.9749C7852 73.2883 7926 97.1442 8000 97.1442C8074 97.1442 8148 73.2883 8222 73.2883C8296 73.2883 8370 97.1442 8444 99.5298C8519 101.915 8593 82.8307 8667 78.0595C8741 73.2883 8815 82.8307 8889 82.8307C8963 82.8307 9037 73.2883 9111 61.3604C9185 49.4325 9259 35.119 9333 32.7334C9407 30.3479 9481 39.8902 9556 54.2037C9630 68.5172 9704 87.6018 9778 89.9874C9852 92.373 9926 78.0595 9963 70.9028L10000 63.746V121H9963C9926 121 9852 121 9778 121C9704 121 9630 121 9556 121C9481 121 9407 121 9333 121C9259 121 9185 121 9111 121C9037 121 8963 121 8889 121C8815 121 8741 121 8667 121C8593 121 8519 121 8444 121C8370 121 8296 121 8222 121C8148 121 8074 121 8000 121C7926 121 7852 121 7778 121C7704 121 7630 121 7556 121C7481 121 7407 121 7333 121C7259 121 7185 121 7111 121C7037 121 6963 121 6889 121C6815 121 6741 121 6667 121C6593 121 6519 121 6444 121C6370 121 6296 121 6222 121C6148 121 6074 121 6000 121C5926 121 5852 121 5778 121C5704 121 5630 121 5556 121C5481 121 5407 121 5333 121C5259 121 5185 121 5111 121C5037 121 4963 121 4889 121C4815 121 4741 121 4667 121C4593 121 4519 121 4444 121C4370 121 4296 121 4222 121C4148 121 4074 121 4000 121C3926 121 3852 121 3778 121C3704 121 3630 121 3556 121C3481 121 3407 121 3333 121C3259 121 3185 121 3111 121C3037 121 2963 121 2889 121C2815 121 2741 121 2667 121C2593 121 2519 121 2444 121C2370 121 2296 121 2222 121C2148 121 2074 121 2000 121C1926 121 1852 121 1778 121C1704 121 1630 121 1556 121C1481 121 1407 121 1333 121C1259 121 1185 121 1111 121C1037 121 963 121 889 121C815 121 741 121 667 121C593 121 519 121 444 121C370 121 296 121 222 121C148 121 74 121 37 121H0V35.119Z" fill="#FF868B"/>
</svg>
