<svg width="10000" height="917" viewBox="0 0 10000 917" fill="none" xmlns="http://www.w3.org/2000/svg">
<mask id="mask0" mask-type="alpha" maskUnits="userSpaceOnUse" x="0" y="0" width="10000" height="917">
<rect width="10000" height="917" fill="#C4C4C4"/>
</mask>
<g mask="url(#mask0)">
<path fill-rule="evenodd" clip-rule="evenodd" d="M3.62589 759.989L260.383 737.996C517.139 716.004 1030.65 672.019 1580.22 642.363C2129.78 612.708 2715.4 597.381 3228.91 553.396C3742.43 509.411 4183.84 436.769 4727.39 404.725C5270.95 372.681 5916.65 381.235 6454.2 346.803C6991.75 312.371 7421.14 234.952 7904.61 179.027C8388.08 123.102 8925.63 88.6694 9457.17 51.8491C9988.71 15.0289 10514.2 -24.1795 11021.7 -70.5524C11529.2 -116.925 12018.7 -170.462 12263.5 -197.231L12508.2 -224L12868.7 -80.7111L12606 -61.1069C12343.2 -41.5027 11817.7 -2.29428 11292.1 36.9141C10766.6 76.1225 10241.1 115.331 9715.54 154.539C9190.01 193.748 8472.69 295.792 7947.15 335C7421.62 374.209 7087.89 350.581 6562.36 389.79C6036.82 428.998 5511.29 468.207 4985.76 507.415C4460.23 546.623 3934.7 585.832 3409.17 625.04C2883.64 664.249 2358.11 703.457 1832.58 742.665C1307.05 781.874 781.519 821.082 518.754 840.686L255.988 860.291L3.62589 759.989Z" fill="#FF6161"/>
<path fill-rule="evenodd" clip-rule="evenodd" d="M86.5373 800.396L344.495 778.881C602.453 757.366 1118.37 714.336 1663.13 682.771C2207.89 651.206 2781.5 631.105 3297.41 588.075C3813.33 545.045 4271.55 479.086 4811.51 445.61C5351.46 412.134 5444.25 489 6596.98 374C7132.13 338.614 7667.24 335.084 8159.12 282.5C8651 229.916 9010.94 130.032 9541.28 92.7343C10071.6 55.4367 10597.1 16.2283 11108.3 -28.7125C11619.4 -73.6533 12116 -124.327 12364.4 -149.663L12612.7 -175L12901.2 -60.3518L12638.4 -40.7476C12375.7 -21.1434 11850.1 18.065 11324.6 57.2734C10799.1 96.4818 10273.5 135.69 9748.01 174.899C9222.48 214.107 8509.45 406.401 7983.92 445.61C7458.39 484.818 6544.69 488.566 6019.16 527.774C5493.63 566.983 5543.76 488.566 5018.23 527.774C4492.7 566.983 4041.79 624.792 3516.26 664C2990.73 703.209 2390.58 723.816 1865.05 763.025C1339.52 802.233 813.988 841.441 551.222 861.046L288.457 880.65L86.5373 800.396Z" fill="#FBFF22"/>
<path fill-rule="evenodd" clip-rule="evenodd" d="M191.067 832.396L449.025 810.881C706.982 789.366 1222.9 746.336 1767.66 714.771C2312.42 683.206 2605.46 720.429 3121.37 677.399C3637.29 634.369 3902.56 553.976 4442.51 520.5C4982.46 487.024 5712.78 490.387 6247.93 455C6783.07 419.614 7742.73 411.084 8234.61 358.5C8726.49 305.916 9115.47 162.032 9645.81 124.734C10176.1 87.4367 10701.7 48.2283 11212.8 3.28747C11723.9 -41.6533 12220.6 -92.3265 12468.9 -117.663L12717.3 -143L13005.7 -28.3518L12743 -8.74761C12480.2 10.8566 11954.7 50.065 11429.1 89.2734C10903.6 128.482 11019.1 350.292 10493.6 389.5C9968.08 428.709 10302 755.816 9776.42 795.025C9250.89 834.233 6773.46 730.391 6247.93 769.6C5722.4 808.808 5301.95 675.563 4776.42 714.771C4250.89 753.98 4071.7 638.191 3546.17 677.399C3020.64 716.608 2495.11 755.816 1969.58 795.025C1444.05 834.233 918.517 873.441 655.752 893.046L392.987 912.65L191.067 832.396Z" fill="#A8E204"/>
</g>
</svg>
