<svg width="10000" height="236" viewBox="0 0 10000 236" fill="none" xmlns="http://www.w3.org/2000/svg">
<path fill-rule="evenodd" clip-rule="evenodd" d="M0 99.7453H33.3333C66.6667 99.7453 133.333 99.7453 200 108.057C275 116.37 341.667 132.994 408.333 141.306C475 149.618 541.667 149.618 608.333 141.306C683.333 132.994 750 116.37 816.667 112.214C883.333 108.057 950 116.37 1016.67 132.994C1091.67 149.618 1158.33 174.554 1225 182.866C1291.67 191.179 1358.33 182.866 1425 149.618C1500 116.37 1566.67 58.1848 1633.33 49.8727C1700 41.5605 1766.67 83.1211 1833.33 99.7453C1908.33 116.37 1975 108.057 2041.67 95.5893C2108.33 83.1211 2175 66.4969 2241.67 62.3408C2316.67 58.1848 2383.33 66.4969 2450 66.4969C2516.67 66.4969 2583.33 58.1848 2650 54.0287C2725 49.8727 2791.67 49.8727 2858.33 54.0287C2925 58.1848 2991.67 66.4969 3058.33 95.5893C3133.33 124.682 3200 174.554 3266.67 187.023C3333.33 199.491 3400 174.554 3466.67 149.618C3533.33 124.682 3608.33 99.7453 3675 83.1211C3741.67 66.4969 3808.33 58.1848 3875 49.8727C3941.67 41.5605 4016.67 33.2484 4083.33 33.2484C4150 33.2484 4216.67 41.5606 4283.33 70.6529C4350 99.7453 4425 149.618 4491.67 178.71C4558.33 207.803 4625 216.115 4691.67 195.335C4758.33 174.554 4833.33 124.682 4900 95.5893C4966.67 66.4969 5033.33 58.1848 5100 45.7166C5166.67 33.2484 5241.67 16.6242 5308.33 8.3121C5375 -9.82472e-06 5441.67 -9.82472e-06 5508.33 -9.82472e-06C5575 -9.82472e-06 5650 -9.82472e-06 5716.67 12.4682C5783.33 24.9363 5850 49.8727 5916.67 74.809C5983.33 99.7453 6058.33 124.682 6125 128.838C6191.67 132.994 6258.33 116.37 6325 128.838C6391.67 141.306 6466.67 182.866 6533.33 166.242C6600 149.618 6666.67 74.809 6733.33 66.4969C6800 58.1848 6866.67 116.37 6941.67 132.994C7008.33 149.618 7075 124.682 7141.67 112.214C7208.33 99.7453 7275 99.7453 7350 112.214C7416.67 124.682 7483.33 149.618 7550 157.93C7616.67 166.242 7683.33 157.93 7758.33 166.242C7825 174.554 7891.67 199.491 7958.33 216.115C8025 232.739 8091.67 241.051 8166.67 232.739C8233.33 224.427 8300 199.491 8366.67 157.93C8433.33 116.37 8500 58.1848 8575 45.7166C8641.67 33.2484 8708.33 66.4969 8775 99.7453C8841.67 132.994 8908.33 166.242 8983.33 182.866C9050 199.491 9116.67 199.491 9183.33 195.335C9250 191.179 9316.67 182.866 9391.67 153.774C9458.33 124.682 9525 74.809 9591.67 87.2772C9658.33 99.7453 9725 174.554 9800 178.71C9866.67 182.866 9933.33 116.37 9966.67 83.1211L10000 49.8727V-9.82472e-06H9966.67C9933.33 -9.82472e-06 9866.67 -9.82472e-06 9800 -9.82472e-06C9725 -9.82472e-06 9658.33 -9.82472e-06 9591.67 -9.82472e-06C9525 -9.82472e-06 9458.33 -9.82472e-06 9391.67 -9.82472e-06C9316.67 -9.82472e-06 9250 -9.82472e-06 9183.33 -9.82472e-06C9116.67 -9.82472e-06 9050 -9.82472e-06 8983.33 -9.82472e-06C8908.33 -9.82472e-06 8841.67 -9.82472e-06 8775 -9.82472e-06C8708.33 -9.82472e-06 8641.67 -9.82472e-06 8575 -9.82472e-06C8500 -9.82472e-06 8433.33 -9.82472e-06 8366.67 -9.82472e-06C8300 -9.82472e-06 8233.33 -9.82472e-06 8166.67 -9.82472e-06C8091.67 -9.82472e-06 8025 -9.82472e-06 7958.33 -9.82472e-06C7891.67 -9.82472e-06 7825 -9.82472e-06 7758.33 -9.82472e-06C7683.33 -9.82472e-06 7616.67 -9.82472e-06 7550 -9.82472e-06C7483.33 -9.82472e-06 7416.67 -9.82472e-06 7350 -9.82472e-06C7275 -9.82472e-06 7208.33 -9.82472e-06 7141.67 -9.82472e-06C7075 -9.82472e-06 7008.33 -9.82472e-06 6941.67 -9.82472e-06C6866.67 -9.82472e-06 6800 -9.82472e-06 6733.33 -9.82472e-06C6666.67 -9.82472e-06 6600 -9.82472e-06 6533.33 -9.82472e-06C6466.67 -9.82472e-06 6391.67 -9.82472e-06 6325 -9.82472e-06C6258.33 -9.82472e-06 6191.67 -9.82472e-06 6125 -9.82472e-06C6058.33 -9.82472e-06 5983.33 -9.82472e-06 5916.67 -9.82472e-06C5850 -9.82472e-06 5783.33 -9.82472e-06 5716.67 -9.82472e-06C5650 -9.82472e-06 5575 -9.82472e-06 5508.33 -9.82472e-06C5441.67 -9.82472e-06 5375 -9.82472e-06 5308.33 -9.82472e-06C5241.67 -9.82472e-06 5166.67 -9.82472e-06 5100 -9.82472e-06C5033.33 -9.82472e-06 4966.67 -9.82472e-06 4900 -9.82472e-06C4833.33 -9.82472e-06 4758.33 -9.82472e-06 4691.67 -9.82472e-06C4625 -9.82472e-06 4558.33 -9.82472e-06 4491.67 -9.82472e-06C4425 -9.82472e-06 4350 -9.82472e-06 4283.33 -9.82472e-06C4216.67 -9.82472e-06 4150 -9.82472e-06 4083.33 -9.82472e-06C4016.67 -9.82472e-06 3941.67 -9.82472e-06 3875 -9.82472e-06C3808.33 -9.82472e-06 3741.67 -9.82472e-06 3675 -9.82472e-06C3608.33 -9.82472e-06 3533.33 -9.82472e-06 3466.67 -9.82472e-06C3400 -9.82472e-06 3333.33 -9.82472e-06 3266.67 -9.82472e-06C3200 -9.82472e-06 3133.33 -9.82472e-06 3058.33 -9.82472e-06C2991.67 -9.82472e-06 2925 -9.82472e-06 2858.33 -9.82472e-06C2791.67 -9.82472e-06 2725 -9.82472e-06 2650 -9.82472e-06C2583.33 -9.82472e-06 2516.67 -9.82472e-06 2450 -9.82472e-06C2383.33 -9.82472e-06 2316.67 -9.82472e-06 2241.67 -9.82472e-06C2175 -9.82472e-06 2108.33 -9.82472e-06 2041.67 -9.82472e-06C1975 -9.82472e-06 1908.33 -9.82472e-06 1833.33 -9.82472e-06C1766.67 -9.82472e-06 1700 -9.82472e-06 1633.33 -9.82472e-06C1566.67 -9.82472e-06 1500 -9.82472e-06 1425 -9.82472e-06C1358.33 -9.82472e-06 1291.67 -9.82472e-06 1225 -9.82472e-06C1158.33 -9.82472e-06 1091.67 -9.82472e-06 1016.67 -9.82472e-06C950 -9.82472e-06 883.333 -9.82472e-06 816.667 -9.82472e-06C750 -9.82472e-06 683.333 -9.82472e-06 608.333 -9.82472e-06C541.667 -9.82472e-06 475 -9.82472e-06 408.333 -9.82472e-06C341.667 -9.82472e-06 275 -9.82472e-06 200 -9.82472e-06C133.333 -9.82472e-06 66.6667 -9.82472e-06 33.3333 -9.82472e-06H0V99.7453Z" fill="#D7C641"/>
</svg>
