<svg width="10000" height="202" viewBox="0 0 10000 202" fill="none" xmlns="http://www.w3.org/2000/svg">
<path fill-rule="evenodd" clip-rule="evenodd" d="M0 43.3661H41.6667C83.3333 43.3661 158.333 43.3661 241.667 61.4353C316.667 79.5045 400 115.643 475 108.415C558.333 101.188 633.333 50.5938 716.667 46.9799C791.667 43.3661 875 86.7322 950 93.9598C1033.33 101.188 1108.33 72.2768 1191.67 79.5045C1266.67 86.7322 1350 130.098 1425 126.484C1508.33 122.871 1583.33 72.2768 1666.67 65.0491C1750 57.8214 1825 93.9598 1908.33 112.029C1983.33 130.098 2066.67 130.098 2141.67 137.326C2225 144.554 2300 159.009 2383.33 140.94C2458.33 122.871 2541.67 72.2768 2616.67 54.2076C2700 36.1384 2775 50.5938 2858.33 54.2076C2933.33 57.8214 3016.67 50.5938 3091.67 57.8214C3175 65.0491 3250 86.7322 3333.33 93.9598C3416.67 101.188 3491.67 93.9598 3575 79.5045C3650 65.0491 3733.33 43.3661 3808.33 54.2076C3891.67 65.0491 3966.67 108.415 4050 122.871C4125 137.326 4208.33 122.871 4283.33 133.712C4366.67 144.554 4441.67 180.692 4525 191.534C4600 202.375 4683.33 187.92 4758.33 177.078C4841.67 166.237 4916.67 159.009 5000 162.623C5083.33 166.237 5158.33 180.692 5241.67 155.395C5316.67 130.098 5400 65.0491 5475 57.8214C5558.33 50.5938 5633.33 101.188 5716.67 126.484C5791.67 151.781 5875 151.781 5950 137.326C6033.33 122.871 6108.33 93.9598 6191.67 93.9598C6266.67 93.9598 6350 122.871 6425 115.643C6508.33 108.415 6583.33 65.0491 6666.67 65.0491C6750 65.0491 6825 108.415 6908.33 122.871C6983.33 137.326 7066.67 122.871 7141.67 112.029C7225 101.188 7300 93.9598 7383.33 97.5737C7458.33 101.188 7541.67 115.643 7616.67 108.415C7700 101.188 7775 72.2768 7858.33 68.663C7933.33 65.0491 8016.67 86.7322 8091.67 83.1183C8175 79.5045 8250 50.5938 8333.33 43.3661C8416.67 36.1384 8491.67 50.5938 8575 46.9799C8650 43.3661 8733.33 21.683 8808.33 28.9107C8891.67 36.1384 8966.67 72.2768 9050 104.801C9125 137.326 9208.33 166.237 9283.33 184.306C9366.67 202.375 9441.67 209.603 9525 191.534C9600 173.464 9683.33 130.098 9758.33 101.188C9841.67 72.2768 9916.67 57.8214 9958.33 50.5938L10000 43.3661V5.61286e-06H9958.33C9916.67 5.61286e-06 9841.67 5.61286e-06 9758.33 5.61286e-06C9683.33 5.61286e-06 9600 5.61286e-06 9525 5.61286e-06C9441.67 5.61286e-06 9366.67 5.61286e-06 9283.33 5.61286e-06C9208.33 5.61286e-06 9125 5.61286e-06 9050 5.61286e-06C8966.67 5.61286e-06 8891.67 5.61286e-06 8808.33 5.61286e-06C8733.33 5.61286e-06 8650 5.61286e-06 8575 5.61286e-06C8491.67 5.61286e-06 8416.67 5.61286e-06 8333.33 5.61286e-06C8250 5.61286e-06 8175 5.61286e-06 8091.67 5.61286e-06C8016.67 5.61286e-06 7933.33 5.61286e-06 7858.33 5.61286e-06C7775 5.61286e-06 7700 5.61286e-06 7616.67 5.61286e-06C7541.67 5.61286e-06 7458.33 5.61286e-06 7383.33 5.61286e-06C7300 5.61286e-06 7225 5.61286e-06 7141.67 5.61286e-06C7066.67 5.61286e-06 6983.33 5.61286e-06 6908.33 5.61286e-06C6825 5.61286e-06 6750 5.61286e-06 6666.67 5.61286e-06C6583.33 5.61286e-06 6508.33 5.61286e-06 6425 5.61286e-06C6350 5.61286e-06 6266.67 5.61286e-06 6191.67 5.61286e-06C6108.33 5.61286e-06 6033.33 5.61286e-06 5950 5.61286e-06C5875 5.61286e-06 5791.67 5.61286e-06 5716.67 5.61286e-06C5633.33 5.61286e-06 5558.33 5.61286e-06 5475 5.61286e-06C5400 5.61286e-06 5316.67 5.61286e-06 5241.67 5.61286e-06C5158.33 5.61286e-06 5083.33 5.61286e-06 5000 5.61286e-06C4916.67 5.61286e-06 4841.67 5.61286e-06 4758.33 5.61286e-06C4683.33 5.61286e-06 4600 5.61286e-06 4525 5.61286e-06C4441.67 5.61286e-06 4366.67 5.61286e-06 4283.33 5.61286e-06C4208.33 5.61286e-06 4125 5.61286e-06 4050 5.61286e-06C3966.67 5.61286e-06 3891.67 5.61286e-06 3808.33 5.61286e-06C3733.33 5.61286e-06 3650 5.61286e-06 3575 5.61286e-06C3491.67 5.61286e-06 3416.67 5.61286e-06 3333.33 5.61286e-06C3250 5.61286e-06 3175 5.61286e-06 3091.67 5.61286e-06C3016.67 5.61286e-06 2933.33 5.61286e-06 2858.33 5.61286e-06C2775 5.61286e-06 2700 5.61286e-06 2616.67 5.61286e-06C2541.67 5.61286e-06 2458.33 5.61286e-06 2383.33 5.61286e-06C2300 5.61286e-06 2225 5.61286e-06 2141.67 5.61286e-06C2066.67 5.61286e-06 1983.33 5.61286e-06 1908.33 5.61286e-06C1825 5.61286e-06 1750 5.61286e-06 1666.67 5.61286e-06C1583.33 5.61286e-06 1508.33 5.61286e-06 1425 5.61286e-06C1350 5.61286e-06 1266.67 5.61286e-06 1191.67 5.61286e-06C1108.33 5.61286e-06 1033.33 5.61286e-06 950 5.61286e-06C875 5.61286e-06 791.667 5.61286e-06 716.667 5.61286e-06C633.333 5.61286e-06 558.333 5.61286e-06 475 5.61286e-06C400 5.61286e-06 316.667 5.61286e-06 241.667 5.61286e-06C158.333 5.61286e-06 83.3333 5.61286e-06 41.6667 5.61286e-06H0V43.3661Z" fill="#E8C696"/>
</svg>
