<svg width="10000" height="187" viewBox="0 0 10000 187" fill="none" xmlns="http://www.w3.org/2000/svg">
<path fill-rule="evenodd" clip-rule="evenodd" d="M0 71.4292L57.2917 63.5844C114.583 55.3266 229.167 39.637 343.75 59.4555C458.333 79.274 572.917 134.601 687.5 162.677C802.083 190.34 921.875 190.34 1036.46 182.495C1151.04 174.238 1265.63 158.548 1380.21 150.703C1494.79 142.858 1609.38 142.858 1723.96 150.703C1838.54 158.548 1953.13 174.238 2067.71 170.522C2182.29 166.393 2296.88 142.858 2411.46 134.601C2531.25 126.756 2645.83 134.601 2760.42 130.885C2875 126.756 2989.58 111.066 3104.17 91.2477C3218.75 71.4292 3333.33 47.4818 3447.92 35.5081C3562.5 23.9474 3677.08 23.9474 3791.67 31.7922C3906.25 39.637 4020.83 55.3266 4135.42 59.4555C4255.21 63.5844 4369.79 55.3266 4484.38 63.5844C4598.96 71.4292 4713.54 94.9636 4828.13 99.0925C4942.71 103.221 5057.29 87.1188 5171.88 99.0925C5286.46 111.066 5401.04 150.703 5515.63 142.858C5630.21 134.601 5744.79 79.274 5864.58 51.6107C5979.17 23.9474 6093.75 23.9474 6208.33 51.6107C6322.92 79.274 6437.5 134.601 6552.08 142.858C6666.67 150.703 6781.25 111.066 6895.83 114.782C7010.42 118.911 7125 166.393 7239.58 154.419C7354.17 142.858 7468.75 71.4292 7588.54 67.3003C7703.13 63.5844 7817.71 126.756 7932.29 134.601C8046.88 142.858 8161.46 94.9636 8276.04 83.4029C8390.63 71.4292 8505.21 94.9636 8619.79 99.0925C8734.38 103.221 8848.96 87.1188 8963.54 87.1188C9078.13 87.1188 9197.92 103.221 9312.5 118.911C9427.08 134.601 9541.67 150.703 9656.25 130.885C9770.83 111.066 9885.42 55.3266 9942.71 27.6633L10000 8.82149e-06H9942.71C9885.42 8.82149e-06 9770.83 8.82149e-06 9656.25 8.82149e-06C9541.67 8.82149e-06 9427.08 8.82149e-06 9312.5 8.82149e-06C9197.92 8.82149e-06 9078.13 8.82149e-06 8963.54 8.82149e-06C8848.96 8.82149e-06 8734.38 8.82149e-06 8619.79 8.82149e-06C8505.21 8.82149e-06 8390.63 8.82149e-06 8276.04 8.82149e-06C8161.46 8.82149e-06 8046.88 8.82149e-06 7932.29 8.82149e-06C7817.71 8.82149e-06 7703.13 8.82149e-06 7588.54 8.82149e-06C7468.75 8.82149e-06 7354.17 8.82149e-06 7239.58 8.82149e-06C7125 8.82149e-06 7010.42 8.82149e-06 6895.83 8.82149e-06C6781.25 8.82149e-06 6666.67 8.82149e-06 6552.08 8.82149e-06C6437.5 8.82149e-06 6322.92 8.82149e-06 6208.33 8.82149e-06C6093.75 8.82149e-06 5979.17 8.82149e-06 5864.58 8.82149e-06C5744.79 8.82149e-06 5630.21 8.82149e-06 5515.63 8.82149e-06C5401.04 8.82149e-06 5286.46 8.82149e-06 5171.88 8.82149e-06C5057.29 8.82149e-06 4942.71 8.82149e-06 4828.13 8.82149e-06C4713.54 8.82149e-06 4598.96 8.82149e-06 4484.38 8.82149e-06C4369.79 8.82149e-06 4255.21 8.82149e-06 4135.42 8.82149e-06C4020.83 8.82149e-06 3906.25 8.82149e-06 3791.67 8.82149e-06C3677.08 8.82149e-06 3562.5 8.82149e-06 3447.92 8.82149e-06C3333.33 8.82149e-06 3218.75 8.82149e-06 3104.17 8.82149e-06C2989.58 8.82149e-06 2875 8.82149e-06 2760.42 8.82149e-06C2645.83 8.82149e-06 2531.25 8.82149e-06 2411.46 8.82149e-06C2296.88 8.82149e-06 2182.29 8.82149e-06 2067.71 8.82149e-06C1953.13 8.82149e-06 1838.54 8.82149e-06 1723.96 8.82149e-06C1609.38 8.82149e-06 1494.79 8.82149e-06 1380.21 8.82149e-06C1265.63 8.82149e-06 1151.04 8.82149e-06 1036.46 8.82149e-06C921.875 8.82149e-06 802.083 8.82149e-06 687.5 8.82149e-06C572.917 8.82149e-06 458.333 8.82149e-06 343.75 8.82149e-06C229.167 8.82149e-06 114.583 8.82149e-06 57.2917 8.82149e-06H0V71.4292Z" fill="#0099FF"/>
</svg>
