<svg width="10000" height="16" viewBox="0 0 10000 16" fill="none" xmlns="http://www.w3.org/2000/svg">
<path fill-rule="evenodd" clip-rule="evenodd" d="M0 0L130.208 1.86111C255.208 3.72222 510.417 7.47222 770.833 8C1026.04 8.52778 1281.25 5.86111 1536.46 5.33333C1796.88 4.80556 2052.08 6.38889 2307.29 8.27778C2562.5 10.1389 2822.92 12.2778 3078.13 11.4722C3333.33 10.6667 3588.54 6.94444 3843.75 5.05556C4104.17 3.19444 4359.38 3.19444 4614.58 3.47222C4869.79 3.72222 5130.21 4.27778 5385.42 5.86111C5640.63 7.47222 5895.83 10.1389 6156.25 9.61111C6411.46 9.05556 6666.67 5.33333 6921.88 4.27778C7177.08 3.19444 7437.5 4.80556 7692.71 6.38889C7947.92 8 8203.13 9.61111 8463.54 10.6667C8718.75 11.7222 8973.96 12.2778 9229.17 10.9444C9489.58 9.61111 9744.79 6.38889 9869.79 4.80556L10000 3.19444V16H9869.79C9744.79 16 9489.58 16 9229.17 16C8973.96 16 8718.75 16 8463.54 16C8203.13 16 7947.92 16 7692.71 16C7437.5 16 7177.08 16 6921.88 16C6666.67 16 6411.46 16 6156.25 16C5895.83 16 5640.63 16 5385.42 16C5130.21 16 4869.79 16 4614.58 16C4359.38 16 4104.17 16 3843.75 16C3588.54 16 3333.33 16 3078.13 16C2822.92 16 2562.5 16 2307.29 16C2052.08 16 1796.88 16 1536.46 16C1281.25 16 1026.04 16 770.833 16C510.417 16 255.208 16 130.208 16H0V0Z" fill="#718FA4"/>
</svg>
