<svg width="10000" height="530" viewBox="0 0 10000 530" fill="none" xmlns="http://www.w3.org/2000/svg">
<rect width="10000" height="530" fill="#E8C696"/>
<path fill-rule="evenodd" clip-rule="evenodd" d="M0 78.3047L57.2917 69.7048C114.583 60.6522 229.167 43.4523 343.75 65.1785C458.333 86.9046 572.917 147.557 687.5 178.336C802.083 208.662 921.875 208.662 1036.46 200.062C1151.04 191.009 1265.63 173.809 1380.21 165.209C1494.79 156.609 1609.38 156.609 1723.96 165.209C1838.54 173.809 1953.13 191.009 2067.71 186.936C2182.29 182.409 2296.88 156.609 2411.46 147.557C2531.25 138.957 2645.83 147.557 2760.42 143.483C2875 138.957 2989.58 121.757 3104.17 100.031C3218.75 78.3047 3333.33 52.0523 3447.92 38.926C3562.5 26.2524 3677.08 26.2524 3791.67 34.8524C3906.25 43.4523 4020.83 60.6522 4135.42 65.1785C4255.21 69.7048 4369.79 60.6522 4484.38 69.7048C4598.96 78.3047 4713.54 104.105 4828.13 108.631C4942.71 113.157 5057.29 95.5046 5171.88 108.631C5286.46 121.757 5401.04 165.209 5515.63 156.609C5630.21 147.557 5744.79 86.9046 5864.58 56.5785C5979.17 26.2524 6093.75 26.2524 6208.33 56.5785C6322.92 86.9046 6437.5 147.557 6552.08 156.609C6666.67 165.209 6781.25 121.757 6895.83 125.831C7010.42 130.357 7125 182.409 7239.58 169.283C7354.17 156.609 7468.75 78.3047 7588.54 73.7784C7703.13 69.7048 7817.71 138.957 7932.29 147.557C8046.88 156.609 8161.46 104.105 8276.04 91.4309C8390.63 78.3047 8505.21 104.105 8619.79 108.631C8734.38 113.157 8848.96 95.5046 8963.54 95.5046C9078.13 95.5046 9197.92 113.157 9312.5 130.357C9427.08 147.557 9541.67 165.209 9656.25 143.483C9770.83 121.757 9885.42 60.6522 9942.71 30.3261L10000 -2.68221e-06H9942.71C9885.42 -2.68221e-06 9770.83 -2.68221e-06 9656.25 -2.68221e-06C9541.67 -2.68221e-06 9427.08 -2.68221e-06 9312.5 -2.68221e-06C9197.92 -2.68221e-06 9078.13 -2.68221e-06 8963.54 -2.68221e-06C8848.96 -2.68221e-06 8734.38 -2.68221e-06 8619.79 -2.68221e-06C8505.21 -2.68221e-06 8390.63 -2.68221e-06 8276.04 -2.68221e-06C8161.46 -2.68221e-06 8046.88 -2.68221e-06 7932.29 -2.68221e-06C7817.71 -2.68221e-06 7703.13 -2.68221e-06 7588.54 -2.68221e-06C7468.75 -2.68221e-06 7354.17 -2.68221e-06 7239.58 -2.68221e-06C7125 -2.68221e-06 7010.42 -2.68221e-06 6895.83 -2.68221e-06C6781.25 -2.68221e-06 6666.67 -2.68221e-06 6552.08 -2.68221e-06C6437.5 -2.68221e-06 6322.92 -2.68221e-06 6208.33 -2.68221e-06C6093.75 -2.68221e-06 5979.17 -2.68221e-06 5864.58 -2.68221e-06C5744.79 -2.68221e-06 5630.21 -2.68221e-06 5515.63 -2.68221e-06C5401.04 -2.68221e-06 5286.46 -2.68221e-06 5171.88 -2.68221e-06C5057.29 -2.68221e-06 4942.71 -2.68221e-06 4828.13 -2.68221e-06C4713.54 -2.68221e-06 4598.96 -2.68221e-06 4484.38 -2.68221e-06C4369.79 -2.68221e-06 4255.21 -2.68221e-06 4135.42 -2.68221e-06C4020.83 -2.68221e-06 3906.25 -2.68221e-06 3791.67 -2.68221e-06C3677.08 -2.68221e-06 3562.5 -2.68221e-06 3447.92 -2.68221e-06C3333.33 -2.68221e-06 3218.75 -2.68221e-06 3104.17 -2.68221e-06C2989.58 -2.68221e-06 2875 -2.68221e-06 2760.42 -2.68221e-06C2645.83 -2.68221e-06 2531.25 -2.68221e-06 2411.46 -2.68221e-06C2296.88 -2.68221e-06 2182.29 -2.68221e-06 2067.71 -2.68221e-06C1953.13 -2.68221e-06 1838.54 -2.68221e-06 1723.96 -2.68221e-06C1609.38 -2.68221e-06 1494.79 -2.68221e-06 1380.21 -2.68221e-06C1265.63 -2.68221e-06 1151.04 -2.68221e-06 1036.46 -2.68221e-06C921.875 -2.68221e-06 802.083 -2.68221e-06 687.5 -2.68221e-06C572.917 -2.68221e-06 458.333 -2.68221e-06 343.75 -2.68221e-06C229.167 -2.68221e-06 114.583 -2.68221e-06 57.2917 -2.68221e-06H0V78.3047Z" fill="#CEB26A"/>
</svg>
